fd_1_states
version=1
nRows=19
nColumns=17
inDegrees=yes

# SIMM Motion File Header:
name fd_1_states
datacolumns 17
datarows 19
otherdata 1
range 0.690513 0.700361
endheader
time	/jointset/r_shoulder/r_shoulder_elev/value	/jointset/r_shoulder/r_shoulder_elev/speed	/jointset/r_elbow/r_elbow_flex/value	/jointset/r_elbow/r_elbow_flex/speed	/forceset/TRIlong/activation	/forceset/TRIlong/fiber_length	/forceset/TRIlat/activation	/forceset/TRIlat/fiber_length	/forceset/TRImed/activation	/forceset/TRImed/fiber_length	/forceset/BIClong/activation	/forceset/BIClong/fiber_length	/forceset/BICshort/activation	/forceset/BICshort/fiber_length	/forceset/BRA/activation	/forceset/BRA/fiber_length
      0.690513	     -0.189963	      0.917962	     86.960740	   -281.121628	      0.051276	      0.168541	      0.456490	      0.101946	      0.449228	      0.097014	      0.164031	      0.098908	      0.046456	      0.098990	      0.038504	      0.069526
      0.691650	     -0.188919	      0.918552	     86.641013	   -281.130362	      0.050768	      0.168438	      0.449833	      0.101844	      0.442734	      0.096912	      0.162876	      0.099186	      0.046127	      0.099265	      0.038213	      0.069650
      0.692162	     -0.188449	      0.915582	     86.497004	   -281.122422	      0.050542	      0.168392	      0.446924	      0.101798	      0.439896	      0.096866	      0.162364	      0.099312	      0.045981	      0.099388	      0.038083	      0.069709
      0.692789	     -0.187877	      0.910318	     86.320909	   -281.106859	      0.050268	      0.168335	      0.443441	      0.101743	      0.436496	      0.096811	      0.161746	      0.099465	      0.045804	      0.099539	      0.037926	      0.069776
      0.693415	     -0.187309	      0.900082	     86.144829	   -281.072987	      0.049996	      0.168278	      0.440035	      0.101688	      0.433171	      0.096755	      0.161135	      0.099618	      0.045628	      0.099690	      0.037771	      0.069849
      0.694042	     -0.186749	      0.887691	     85.968774	   -281.031470	      0.049727	      0.168221	      0.436705	      0.101633	      0.429919	      0.096700	      0.160533	      0.099771	      0.045454	      0.099840	      0.037616	      0.069914
      0.694668	     -0.186199	      0.868688	     85.792750	   -280.965665	      0.049461	      0.168164	      0.433449	      0.101578	      0.426739	      0.096645	      0.159937	      0.099923	      0.045282	      0.099991	      0.037464	      0.069989
      0.695228	     -0.185717	      0.850307	     85.635322	   -280.902105	      0.049225	      0.168113	      0.430597	      0.101528	      0.423953	      0.096596	      0.159412	      0.100060	      0.045129	      0.100125	      0.037328	      0.070045
      0.695789	     -0.185247	      0.826177	     85.477935	   -280.817563	      0.048991	      0.168063	      0.427800	      0.101479	      0.421220	      0.096546	      0.158892	      0.100196	      0.044978	      0.100260	      0.037194	      0.070109
      0.696509	     -0.184665	      0.791021	     85.275722	   -280.694277	      0.048694	      0.167997	      0.424286	      0.101417	      0.417785	      0.096483	      0.158232	      0.100371	      0.044785	      0.100433	      0.037022	      0.070185
      0.697086	     -0.184218	      0.756734	     85.113728	   -280.573444	      0.048457	      0.167945	      0.421532	      0.101366	      0.415094	      0.096432	      0.157710	      0.100512	      0.044632	      0.100571	      0.036887	      0.070253
      0.697664	     -0.183791	      0.720428	     84.951806	   -280.445820	      0.048223	      0.167892	      0.418832	      0.101316	      0.412454	      0.096382	      0.157194	      0.100651	      0.044480	      0.100709	      0.036752	      0.070312
      0.698241	     -0.183387	      0.678515	     84.789963	   -280.298138	      0.047991	      0.167840	      0.416186	      0.101265	      0.409866	      0.096331	      0.156685	      0.100791	      0.044330	      0.100847	      0.036618	      0.070377
      0.698951	     -0.182925	      0.623164	     84.591033	   -280.103547	      0.047709	      0.167776	      0.413002	      0.101203	      0.406752	      0.096269	      0.156066	      0.100963	      0.044146	      0.101016	      0.036455	      0.070451
      0.699530	     -0.182579	      0.571980	     84.428877	   -279.923453	      0.047480	      0.167723	      0.410461	      0.101153	      0.404266	      0.096218	      0.155568	      0.101103	      0.043998	      0.101154	      0.036324	      0.070519
      0.699901	     -0.182373	      0.538474	     84.325124	   -279.805925	      0.047335	      0.167690	      0.408860	      0.101120	      0.402700	      0.096186	      0.155252	      0.101192	      0.043904	      0.101242	      0.036240	      0.070557
      0.700054	     -0.182291	      0.523916	     84.282222	   -279.754843	      0.047275	      0.167676	      0.408297	      0.101107	      0.402147	      0.096172	      0.155121	      0.101229	      0.043863	      0.101279	      0.036206	      0.070573
      0.700207	     -0.182212	      0.509087	     84.239327	   -279.702820	      0.047216	      0.167662	      0.408385	      0.101094	      0.402206	      0.096159	      0.154986	      0.101266	      0.043812	      0.101315	      0.036171	      0.070590
      0.700361	     -0.182135	      0.494041	     84.196441	   -279.650054	      0.047156	      0.167648	      0.408509	      0.101080	      0.402296	      0.096145	      0.154851	      0.101303	      0.043761	      0.101352	      0.036137	      0.070606
